<?xml version="1.0" encoding="utf-8"?>
<!-- Generator: Adobe Illustrator 22.1.0, SVG Export Plug-In . SVG Version: 6.00 Build 0)  -->
<svg version="1.1" id="Layer_1" xmlns="http://www.w3.org/2000/svg" xmlns:xlink="http://www.w3.org/1999/xlink" x="0px" y="0px"
	 viewBox="0 0 417.333 144.704" enable-background="new 0 0 417.333 144.704" xml:space="preserve">
<path id="_31268856" fill="#009246" d="M40.619,36.171c0.695,0.199,4.185,1.178,7.102,1.611V23.979
	c0-9.665,7.908-17.573,17.573-17.573h32.811v1.231C90.991,40.845,77.836,70.325,40.619,36.171z M45.997,100.747H21.336
	c-9.665,0-17.572-7.908-17.572-17.572V50.363h43.579C54.885,68.089,54.522,85.803,45.997,100.747z"/>
<path id="_31268688" fill="#CE2B37" d="M142.062,67.936v32.811H98.105v26.385c0,9.664-7.908,17.572-17.572,17.572H47.721v-21.408
	c-7.835,3.137-17.313,4.634-22.245,4.729c38.22-12.98,65.215-47.187,72.629-90.653v12.992h26.384
	C134.154,50.363,142.062,58.271,142.062,67.936L142.062,67.936z"/>
<path id="_31268448" fill="#F1F2F1" d="M99.636,0C105.402,70.609,63.1,128.034,0,133.284c54.616-16.479,66.142-60.462,37.611-99.952
	C80.077,74.768,92.691,36.866,99.636,0L99.636,0z M66.406,26.607c5.068-2.926,11.548-1.19,14.474,3.878
	c2.926,5.068,1.19,11.548-3.878,14.474c-5.068,2.926-11.548,1.19-14.474-3.878C59.602,36.013,61.338,29.533,66.406,26.607z"/>
<g>
	<path fill="#FFFFFF" d="M162.427,31.628h11.483l9.497,18.44l9.275-18.44h11.483v37.985h-11.483V49.351l-7.012,13.251h-4.693
		l-7.067-13.251v20.263h-11.483V31.628z"/>
	<path fill="#FFFFFF" d="M216.452,68.206c-2.374-1.233-4.224-2.926-5.549-5.08c-1.325-2.153-1.988-4.591-1.988-7.315
		c0-2.797,0.681-5.281,2.043-7.454c1.361-2.171,3.202-3.846,5.521-5.024c2.318-1.177,4.895-1.767,7.729-1.767
		c2.724,0,5.052,0.599,6.984,1.794c1.933,1.197,3.376,2.816,4.334,4.858c0.957,2.043,1.436,4.334,1.436,6.874
		c0,0.663-0.037,1.141-0.11,1.436l-16.563,2.153c0.441,1.289,1.159,2.218,2.153,2.788c0.993,0.571,2.3,0.855,3.92,0.855
		c2.503,0,5.208-0.644,8.116-1.932l1.38,7.398c-3.423,1.509-7.178,2.264-11.263,2.264C221.54,70.055,218.826,69.439,216.452,68.206z
		 M228.405,51.725c-0.59-2.319-1.988-3.479-4.196-3.479c-1.325,0-2.374,0.497-3.147,1.491c-0.772,0.994-1.178,2.283-1.214,3.865
		L228.405,51.725z"/>
	<path fill="#FFFFFF" d="M246.265,68.067c-2.043-1.325-3.653-3.083-4.831-5.272c-1.179-2.189-1.767-4.518-1.767-6.984
		c0-2.613,0.616-5.015,1.85-7.205c1.232-2.189,2.889-3.911,4.969-5.162c2.079-1.251,4.297-1.877,6.653-1.877
		c2.134,0,3.947,0.442,5.438,1.325c1.49,0.883,2.695,2.301,3.616,4.251V33.229l11.649-1.711v38.096h-11.649v-5.135
		c-1.73,3.718-4.768,5.577-9.11,5.577C250.581,70.055,248.308,69.393,246.265,68.067z M260.62,59.675
		c1.05-1.104,1.574-2.392,1.574-3.865V55.59c0-1.436-0.553-2.678-1.656-3.727c-1.104-1.049-2.374-1.573-3.81-1.573
		c-1.546,0-2.844,0.543-3.893,1.628c-1.049,1.086-1.573,2.384-1.573,3.893c0,1.546,0.542,2.853,1.628,3.92
		c1.086,1.068,2.365,1.601,3.838,1.601C258.274,61.332,259.571,60.779,260.62,59.675z"/>
	<path fill="#FFFFFF" d="M280.828,36.183c-1.196-1.085-1.794-2.42-1.794-4.003c0-1.582,0.625-2.907,1.877-3.975
		c1.251-1.067,2.687-1.601,4.307-1.601c1.692,0,3.155,0.552,4.389,1.656c1.233,1.104,1.85,2.411,1.85,3.92
		c0,1.62-0.626,2.963-1.877,4.03c-1.252,1.068-2.705,1.601-4.361,1.601C283.487,37.811,282.023,37.269,280.828,36.183z
		 M281.96,67.074c-1.73-1.988-2.595-4.693-2.595-8.116V41.953h11.704V58.46c0,0.847,0.229,1.5,0.69,1.96
		c0.46,0.461,1.058,0.69,1.795,0.69c0.735,0,1.49-0.221,2.264-0.663l0.606,7.674c-0.81,0.626-1.868,1.104-3.174,1.436
		c-1.308,0.331-2.66,0.497-4.059,0.497C286.1,70.055,283.689,69.061,281.96,67.074z"/>
	<path fill="#FFFFFF" d="M305.451,68.261c-2.264-1.196-4.03-2.88-5.3-5.052c-1.27-2.171-1.905-4.638-1.905-7.398
		c0-2.65,0.663-5.061,1.988-7.233c1.325-2.171,3.128-3.883,5.41-5.134c2.282-1.251,4.821-1.877,7.619-1.877
		c3.57,0,6.386,0.737,8.447,2.208l-1.049,7.343c-2.098-0.625-3.828-0.939-5.189-0.939c-1.767,0-3.166,0.507-4.196,1.519
		c-1.031,1.013-1.546,2.384-1.546,4.113c0,1.73,0.515,3.111,1.546,4.141c1.03,1.031,2.393,1.546,4.086,1.546
		c1.472,0,3.202-0.312,5.189-0.938l1.049,7.729c-1.252,0.626-2.521,1.077-3.81,1.353c-1.289,0.276-2.798,0.414-4.527,0.414
		C310.318,70.055,307.714,69.457,305.451,68.261z"/>
	<path fill="#FFFFFF" d="M327.038,36.183c-1.196-1.085-1.794-2.42-1.794-4.003c0-1.582,0.625-2.907,1.877-3.975
		c1.251-1.067,2.687-1.601,4.307-1.601c1.692,0,3.155,0.552,4.389,1.656c1.233,1.104,1.85,2.411,1.85,3.92
		c0,1.62-0.626,2.963-1.877,4.03c-1.252,1.068-2.705,1.601-4.361,1.601C329.697,37.811,328.233,37.269,327.038,36.183z
		 M328.169,67.074c-1.73-1.988-2.595-4.693-2.595-8.116V41.953h11.704V58.46c0,0.847,0.229,1.5,0.69,1.96
		c0.46,0.461,1.058,0.69,1.795,0.69c0.735,0,1.49-0.221,2.264-0.663l0.606,7.674c-0.81,0.626-1.868,1.104-3.174,1.436
		c-1.308,0.331-2.66,0.497-4.059,0.497C332.31,70.055,329.899,69.061,328.169,67.074z"/>
	<path fill="#FFFFFF" d="M345.836,42.339h11.098v5.632c2.134-4.27,5.521-6.405,10.158-6.405c3.534,0,6.303,1.261,8.31,3.782
		c2.006,2.521,3.009,6.009,3.009,10.462v13.803h-11.594V54.651c0-1.582-0.341-2.796-1.021-3.644c-0.682-0.847-1.629-1.27-2.844-1.27
		c-0.884,0-1.749,0.286-2.595,0.856c-0.848,0.571-1.537,1.39-2.07,2.457c-0.534,1.068-0.801,2.283-0.801,3.644v12.919h-11.649
		V42.339z"/>
	<path fill="#FFFFFF" d="M389.259,68.15c-2.08-1.27-3.745-3-4.996-5.19c-1.252-2.189-1.878-4.628-1.878-7.315
		c0-2.65,0.626-5.052,1.878-7.205c1.251-2.153,2.926-3.837,5.023-5.052c2.099-1.215,4.325-1.822,6.681-1.822
		c1.914,0,3.69,0.534,5.328,1.601c1.638,1.068,2.88,2.669,3.727,4.804v-6.405h11.595v28.047h-11.595v-5.135
		c-1.841,3.718-4.858,5.577-9.055,5.577C393.575,70.055,391.338,69.42,389.259,68.15z M403.338,59.758
		c1.049-1.049,1.609-2.292,1.684-3.727V55.59c-0.074-1.472-0.653-2.724-1.739-3.754c-1.086-1.03-2.328-1.546-3.727-1.546
		c-1.546,0-2.862,0.543-3.947,1.628c-1.086,1.086-1.629,2.384-1.629,3.893c0,1.546,0.552,2.853,1.656,3.92
		c1.104,1.068,2.41,1.601,3.92,1.601C401.028,61.332,402.29,60.807,403.338,59.758z"/>
	<path fill="#FFFFFF" d="M162.427,83.685h12.754v37.985h-12.754V83.685z"/>
	<path fill="#FFFFFF" d="M188.265,92.078h-7.895v-8.393h28.654v8.393h-7.896v29.593h-12.864V92.078z"/>
	<path fill="#FFFFFF" d="M218.577,83.685h16.784l10.986,37.985h-12.975l-1.436-7.288h-9.827l-1.602,7.288h-12.422L218.577,83.685z
		 M230.612,107.591l-3.588-16.618l-3.755,16.618H230.612z"/>
	<path fill="#FFFFFF" d="M249.992,83.685h11.926v29.593h13.195v8.393h-25.121V83.685z"/>
	<path fill="#FFFFFF" d="M279.695,83.685h12.754v37.985h-12.754V83.685z"/>
	<path fill="#FFFFFF" d="M306.803,83.685h16.784l10.986,37.985h-12.975l-1.436-7.288h-9.827l-1.602,7.288h-12.422L306.803,83.685z
		 M318.838,107.591l-3.588-16.618l-3.755,16.618H318.838z"/>
</g>
</svg>
